<svg version="1.1" id="Layer_1" xmlns="http://www.w3.org/2000/svg" xmlns:xlink="http://www.w3.org/1999/xlink" x="0px" y="0px"
	 width="100%" viewBox="0 0 358 142" enable-background="new 0 0 358 142" xml:space="preserve">
<path fill="#000000" opacity="1.000000" stroke="none" 
	d="
M170.000000,143.000000 
	C158.645767,143.000000 147.291550,143.000000 135.449982,142.643066 
	C135.637100,141.360962 136.249756,140.382263 136.996948,139.520142 
	C139.886627,136.186020 141.365036,128.586319 139.352859,125.143715 
	C136.836258,120.838104 133.036224,118.649857 127.816895,118.950035 
	C123.521004,119.197105 119.179253,119.261497 114.895363,118.926643 
	C110.768341,118.604050 109.792747,120.350166 109.935379,124.104401 
	C110.174362,130.394669 110.000259,136.700638 110.000000,143.000000 
	C101.979103,143.000000 93.958199,143.000000 85.463348,142.580322 
	C85.243057,139.288330 83.460686,138.957489 81.200729,138.984726 
	C76.378235,139.042877 71.548843,139.133011 66.732712,138.944107 
	C61.970886,138.757339 59.758934,136.269562 59.646610,130.474182 
	C68.017479,130.474182 76.389099,130.474182 84.760719,130.474182 
	C84.740707,129.887848 84.720688,129.301498 84.700676,128.715164 
	C75.006218,128.715164 65.311760,128.715164 55.319393,128.715164 
	C55.319393,129.954956 54.902084,131.428574 55.395123,132.472046 
	C57.091640,136.062531 59.106461,139.502609 61.000000,143.000000 
	C46.645771,143.000000 32.291542,143.000000 17.468746,142.531509 
	C17.000607,138.897339 17.001329,135.731659 17.001406,132.565979 
	C17.001625,123.373817 17.005901,123.447479 25.958893,122.915436 
	C27.274132,122.837273 28.524965,121.675354 29.805599,121.014877 
	C28.534470,120.344498 27.275068,119.120781 25.990314,119.093552 
	C17.663286,118.917114 9.330739,119.001244 1.000000,119.000000 
	C1.000000,79.726486 1.000000,40.452976 1.000000,1.000000 
	C57.354099,1.000000 113.708389,1.000000 170.663193,1.371961 
	C173.175797,1.495948 175.087906,1.247974 177.000000,1.000000 
	C177.444443,1.000000 177.888901,1.000000 179.039307,1.266026 
	C180.179962,2.022052 180.614655,2.512052 181.049362,3.002052 
	C181.701401,2.335034 182.353424,1.668016 183.173615,1.394640 
	C184.191086,1.873079 185.040421,1.957876 186.053818,2.387167 
	C192.112503,5.022500 198.007126,7.313337 203.901733,9.604174 
	C203.555725,10.146879 203.209717,10.689584 202.863708,11.232288 
	C203.185272,11.496047 203.506836,11.759805 203.974030,12.325141 
	C205.054977,13.099483 205.990295,13.572247 207.020844,14.327847 
	C207.731415,15.363251 208.346771,16.115818 208.696762,16.963791 
	C208.599396,17.408010 208.767395,17.756824 208.939224,18.060963 
	C208.943054,18.016289 208.853409,18.013849 208.914703,18.304901 
	C209.154892,18.956099 209.333801,19.316248 209.512711,19.676394 
	C209.718903,19.475203 209.925110,19.274015 210.367615,19.108536 
	C210.869156,19.343800 211.045654,19.603630 211.090469,20.212414 
	C211.358109,20.713923 211.668732,20.926748 211.973511,21.092939 
	C211.967682,21.046305 211.875259,21.063482 211.983551,21.329432 
	C212.332718,22.061209 212.573578,22.527037 212.378998,23.015301 
	C211.963989,23.720778 211.984436,24.403820 211.520966,24.813377 
	C200.466125,22.589676 190.881302,24.093744 184.288559,33.481506 
	C181.630417,37.266609 178.171524,41.285866 180.243820,48.122795 
	C181.145554,45.489182 181.516739,44.129906 182.065170,42.846367 
	C187.100037,31.063128 194.211380,24.878300 206.463364,25.976353 
	C208.608215,26.168577 210.777435,26.088789 213.092499,26.449383 
	C215.756149,30.637781 218.320236,34.477180 220.678421,38.439140 
	C220.908981,38.826527 219.871750,39.968517 219.705215,40.262344 
	C221.553604,42.786430 223.276352,45.138973 225.688950,48.433517 
	C226.628204,37.177010 222.367599,28.426594 216.843597,19.690428 
	C213.833603,16.381310 210.825516,13.417360 207.585419,10.175787 
	C201.265686,7.248397 195.177948,4.598631 189.053711,1.712974 
	C189.017212,1.477084 189.000000,1.000000 189.000000,1.000000 
	C245.580475,1.000000 302.160950,1.000000 359.000000,1.000000 
	C359.000000,40.020515 359.000000,79.041595 358.531342,118.530983 
	C349.795074,119.000221 341.525024,118.900421 333.262268,119.101585 
	C331.889984,119.134995 330.549622,120.481125 329.194519,121.220634 
	C330.531372,121.812996 331.859283,122.893700 333.206482,122.918274 
	C341.801971,123.075012 350.401672,122.999237 359.000000,123.000000 
	C359.000000,124.388893 359.000000,125.777779 358.531342,127.582825 
	C348.541840,127.998985 339.020996,127.998985 329.441071,127.998985 
	C328.739075,134.485931 331.390564,138.927032 335.000000,143.000000 
	C325.312439,143.000000 315.624878,143.000000 305.410889,142.584381 
	C305.300507,139.200363 303.416626,138.978851 301.201080,138.991562 
	C295.886505,139.022079 290.562500,139.168777 285.259552,138.911911 
	C280.864471,138.699066 278.004822,135.240356 278.081848,130.889145 
	C278.163116,126.295990 281.255798,123.084473 285.820557,123.017654 
	C290.802277,122.944740 295.792236,123.134529 300.764587,122.905319 
	C302.237244,122.837433 303.662506,121.740173 305.109467,121.114609 
	C304.911285,120.317062 304.713135,119.519516 304.514954,118.721970 
	C297.033447,119.101723 289.474792,118.958755 282.097931,120.047493 
	C277.289276,120.757187 275.232666,124.574280 274.805695,129.835358 
	C274.352325,135.421692 277.115051,139.080231 280.000000,143.000000 
	C270.312439,143.000000 260.624878,143.000000 250.424469,142.532913 
	C249.939316,135.763138 250.072083,129.457748 249.910187,123.159927 
	C249.875854,121.824615 248.765656,120.516953 248.151154,119.196564 
	C247.434387,120.579781 246.209198,121.923920 246.099289,123.353783 
	C245.807739,127.146667 246.104553,130.981216 245.938721,134.789246 
	C245.880661,136.122314 245.155716,137.426331 244.735291,138.743607 
	C243.455200,137.952606 241.787674,137.445953 240.962311,136.321259 
	C237.448990,131.533768 234.083679,126.628647 230.863968,121.637703 
	C228.535538,118.028351 225.019440,118.708527 221.959579,119.362785 
	C220.978439,119.572563 220.155960,122.743561 220.086258,124.590897 
	C219.854965,130.719620 219.999573,136.862534 220.000000,143.000000 
	C211.979095,143.000000 203.958191,143.000000 195.463181,142.580475 
	C195.239563,139.303589 193.473572,138.955978 191.213181,138.985291 
	C186.402466,139.047668 181.560089,139.315323 176.792267,138.857437 
	C174.591995,138.646133 172.380264,137.147125 170.487396,135.793365 
	C169.661346,135.202591 169.059250,133.299576 169.401855,132.384109 
	C169.685349,131.626617 171.498688,131.091629 172.647415,131.066681 
	C178.617615,130.937057 184.592621,131.046341 190.564575,130.967758 
	C191.987701,130.949051 193.405563,130.529648 194.825836,130.294540 
	C194.821686,129.735855 194.817535,129.177185 194.813370,128.618500 
	C193.335068,128.412201 191.858368,128.042236 190.378189,128.027756 
	C183.742188,127.962860 177.105164,127.983360 170.468597,128.003677 
	C164.735962,128.021240 163.450119,129.914703 165.785858,135.329941 
	C166.935989,137.996429 168.579666,140.450058 170.000000,143.000000 
M146.027527,66.971939 
	C146.027527,66.971939 146.107132,66.944290 145.866241,66.374168 
	C145.281784,66.242706 144.697342,66.111244 144.013672,65.178032 
	C142.877045,62.526974 142.426971,59.024796 140.442886,57.424339 
	C137.466492,55.023441 140.026901,54.839993 141.776352,53.969742 
	C142.662979,53.884438 143.549591,53.799133 144.436218,53.713829 
	C144.426926,53.534611 144.417633,53.355392 144.408340,53.176174 
	C143.291672,53.176174 142.175018,53.176174 140.283020,53.013859 
	C133.922638,50.327503 138.829590,44.076519 135.705627,39.147491 
	C134.986282,41.632172 134.200378,43.300621 134.056488,45.022709 
	C133.390594,52.992565 135.333511,60.486404 138.975037,67.494041 
	C140.461670,70.354858 141.400101,74.167122 146.052628,74.620346 
	C146.615341,75.075584 147.178055,75.530815 147.964661,76.605766 
	C148.976776,77.139862 149.988907,77.673958 150.977402,78.498734 
	C150.977402,78.498734 151.128036,78.748459 151.095215,79.538292 
	C151.872345,79.664490 152.649490,79.790688 153.548660,80.526863 
	C153.431168,80.620033 153.313675,80.713196 153.196182,80.806358 
	C153.270828,80.842468 153.345459,80.878586 153.420090,80.914696 
	C153.396179,80.613213 153.372253,80.311729 153.849014,79.698868 
	C153.841858,79.502464 153.834717,79.306068 153.988266,78.153442 
	C153.868973,77.529320 153.749664,76.905205 154.227997,76.859184 
	C154.901108,76.783577 155.574234,76.707962 156.247345,76.632355 
	C156.205780,76.415703 156.164215,76.199051 156.122650,75.982391 
	C155.287262,76.152374 154.451859,76.322357 153.247772,76.368530 
	C153.247772,76.368530 152.884842,76.508324 153.531479,75.809784 
	C152.689911,75.716377 151.848343,75.622978 151.499451,74.942482 
	C151.020569,74.590683 150.541672,74.238892 150.021561,73.954384 
	C150.021561,73.954384 150.090485,73.992836 149.949066,73.445114 
	C149.634277,73.259682 149.319489,73.074249 149.029388,72.970978 
	C149.029388,72.970978 149.110352,72.942627 148.905533,72.401695 
	C148.546021,71.959816 148.186508,71.517944 147.971222,70.460770 
	C147.987915,70.039940 148.004608,69.619118 148.567688,68.906258 
	C148.049271,68.566818 147.530853,68.227379 146.998093,67.980652 
	C146.998093,67.980652 147.090958,67.994026 146.947800,67.446823 
	C146.632996,67.261612 146.318192,67.076401 146.027527,66.971939 
M195.323730,74.213089 
	C187.244293,81.823364 177.433167,84.466866 166.316772,84.019196 
	C172.585571,88.289932 188.118484,84.158386 197.671494,75.881714 
	C201.155350,71.438690 204.706894,67.045456 208.051514,62.499977 
	C208.564407,61.802929 208.123093,60.403759 208.123093,58.183842 
	C205.731628,61.931141 204.281769,64.593758 202.452393,66.963379 
	C200.489334,69.506111 198.169510,71.773415 195.323730,74.213089 
M167.939423,122.983582 
	C175.879471,122.984322 183.820602,123.047760 191.758194,122.908653 
	C192.782562,122.890694 193.788559,121.823837 194.803070,121.242859 
	C193.950348,120.505287 193.109375,119.143456 192.243042,119.127129 
	C183.975708,118.971298 175.703568,119.004257 167.434570,119.115738 
	C166.683487,119.125870 165.944901,120.061050 165.200500,120.566650 
	C165.818832,121.354042 166.437149,122.141441 167.939423,122.983582 
M55.496876,119.749634 
	C54.509796,122.386734 55.991558,122.983360 58.178143,122.984520 
	C65.956642,122.988640 73.736824,123.067856 81.511734,122.901703 
	C82.622971,122.877953 83.708687,121.659920 84.806221,120.994606 
	C83.705414,120.332771 82.609940,119.109024 81.502945,119.098495 
	C73.071144,119.018349 64.637085,119.175133 55.496876,119.749634 
M158.457199,8.920770 
	C161.539490,7.435339 164.621765,5.949909 167.857864,4.390349 
	C160.447357,1.268273 140.313385,17.325893 140.537109,25.419100 
	C146.122452,20.092281 151.919464,14.563605 158.457199,8.920770 
M189.476181,16.915974 
	C178.714569,18.256517 166.078690,29.051208 168.745056,35.112282 
	C175.586121,22.809975 186.214020,17.116049 200.493195,17.711403 
	C200.285065,17.260410 200.076935,16.809418 199.868820,16.358425 
	C196.630920,16.358425 193.393036,16.358425 189.476181,16.915974 
M202.532410,83.991264 
	C202.103302,84.466423 201.674210,84.941582 201.245102,85.416733 
	C201.596100,85.788757 201.947113,86.160782 202.298111,86.532799 
	C210.871536,82.485222 216.619812,75.357666 221.261963,67.101784 
	C221.656143,66.400764 221.149841,65.193420 221.061859,64.221291 
	C216.372055,72.332977 210.664291,78.766823 202.532410,83.991264 
M167.238770,65.956787 
	C162.698288,67.302750 158.157822,68.648712 154.008743,69.878654 
	C160.143539,73.708015 173.493408,67.407898 179.652420,56.140697 
	C177.614182,57.325386 176.642273,57.706280 175.902908,58.352997 
	C173.198090,60.718887 170.570724,63.173309 167.238770,65.956787 
M162.959244,17.495142 
	C158.208694,20.374567 157.817429,21.099203 159.778168,23.929796 
	C166.108017,15.800033 174.865692,11.766821 184.565369,9.256303 
	C176.484055,9.151774 169.498566,11.770063 162.959244,17.495142 
M189.508194,60.987602 
	C185.676559,65.462105 181.844925,69.936600 178.757767,73.541710 
	C183.519257,73.690369 193.568420,63.020199 194.566574,53.484367 
	C192.533279,56.615372 191.284012,58.539093 189.508194,60.987602 
M210.514191,33.010387 
	C211.467606,32.946156 212.421005,32.881924 213.374420,32.817692 
	C213.365891,32.656658 213.357361,32.495628 213.348831,32.334595 
	C211.506912,32.334595 209.664993,32.334595 207.823090,32.334595 
	C207.823486,32.512032 207.823883,32.689468 207.824280,32.866905 
	C208.463074,32.914547 209.101883,32.962189 210.514191,33.010387 
M163.819641,76.042259 
	C163.702209,76.149208 163.558151,76.239754 163.478043,76.369705 
	C163.435013,76.439522 163.505951,76.671074 163.518448,76.670525 
	C164.223373,76.639534 164.927551,76.591743 165.631805,76.545631 
	C165.254364,76.359627 164.876907,76.173622 163.819641,76.042259 
z"/>
<path fill="#3B3B3B" opacity="1.000000" stroke="none" 
	d="
M110.468651,143.000000 
	C110.000259,136.700638 110.174362,130.394669 109.935379,124.104401 
	C109.792747,120.350166 110.768341,118.604050 114.895363,118.926643 
	C119.179253,119.261497 123.521004,119.197105 127.816895,118.950035 
	C133.036224,118.649857 136.836258,120.838104 139.352859,125.143715 
	C141.365036,128.586319 139.886627,136.186020 136.996948,139.520142 
	C136.249756,140.382263 135.637100,141.360962 134.981323,142.643066 
	C126.979103,143.000000 118.958199,143.000000 110.468651,143.000000 
M135.587097,126.380341 
	C132.715317,123.620857 118.720085,121.462875 115.355728,123.288094 
	C114.951935,123.507149 114.356895,123.915100 114.351021,124.244423 
	C114.271461,128.704773 114.243164,133.167450 114.329979,137.627045 
	C114.337967,138.037048 115.223663,138.781555 115.696259,138.777145 
	C121.139832,138.726395 126.634247,138.934052 131.992126,138.188705 
	C133.514771,137.976868 135.100632,135.066605 135.807907,133.089828 
	C136.435287,131.336304 135.883835,129.160995 135.587097,126.380341 
z"/>
<path fill="#3B3B3B" opacity="1.000000" stroke="none" 
	d="
M220.399994,143.000000 
	C219.999573,136.862534 219.854965,130.719620 220.086258,124.590897 
	C220.155960,122.743561 220.978439,119.572563 221.959579,119.362785 
	C225.019440,118.708527 228.535538,118.028351 230.863968,121.637703 
	C234.083679,126.628647 237.448990,131.533768 240.962311,136.321259 
	C241.787674,137.445953 243.455200,137.952606 244.735291,138.743607 
	C245.155716,137.426331 245.880661,136.122314 245.938721,134.789246 
	C246.104553,130.981216 245.807739,127.146667 246.099289,123.353783 
	C246.209198,121.923920 247.434387,120.579781 248.151154,119.196564 
	C248.765656,120.516953 249.875854,121.824615 249.910187,123.159927 
	C250.072083,129.457748 249.939316,135.763138 249.955811,142.532913 
	C246.969406,143.000000 243.938812,143.000000 240.415039,142.651154 
	C234.954407,135.967560 231.897461,128.097183 225.577820,122.849304 
	C225.051880,123.051086 224.525940,123.252861 224.000000,123.454636 
	C224.000000,129.969757 224.000000,136.484879 224.000000,143.000000 
	C222.933334,143.000000 221.866653,143.000000 220.399994,143.000000 
z"/>
<path fill="#3B3B3B" opacity="1.000000" stroke="none" 
	d="
M280.468628,143.000000 
	C277.115051,139.080231 274.352325,135.421692 274.805695,129.835358 
	C275.232666,124.574280 277.289276,120.757187 282.097931,120.047493 
	C289.474792,118.958755 297.033447,119.101723 304.514954,118.721970 
	C304.713135,119.519516 304.911285,120.317062 305.109467,121.114609 
	C303.662506,121.740173 302.237244,122.837433 300.764587,122.905319 
	C295.792236,123.134529 290.802277,122.944740 285.820557,123.017654 
	C281.255798,123.084473 278.163116,126.295990 278.081848,130.889145 
	C278.004822,135.240356 280.864471,138.699066 285.259552,138.911911 
	C290.562500,139.168777 295.886505,139.022079 301.201080,138.991562 
	C303.416626,138.978851 305.300507,139.200363 304.942200,142.584381 
	C296.979095,143.000000 288.958191,143.000000 280.468628,143.000000 
z"/>
<path fill="#000000" opacity="1.000000" stroke="none" 
	d="
M14.000000,143.000000 
	C9.725079,143.000000 5.450156,143.000000 1.000000,143.000000 
	C1.000000,136.646790 1.000000,130.292435 1.464881,123.468887 
	C4.557112,123.000778 7.195919,123.156815 9.808904,122.963608 
	C13.051963,122.723808 14.159260,124.053841 14.046302,127.237709 
	C13.860110,132.485748 13.998452,137.745300 14.000000,143.000000 
z"/>
<path fill="#3B3B3B" opacity="1.000000" stroke="none" 
	d="
M170.468643,143.000000 
	C168.579666,140.450058 166.935989,137.996429 165.785858,135.329941 
	C163.450119,129.914703 164.735962,128.021240 170.468597,128.003677 
	C177.105164,127.983360 183.742188,127.962860 190.378189,128.027756 
	C191.858368,128.042236 193.335068,128.412201 194.813370,128.618500 
	C194.817535,129.177185 194.821686,129.735855 194.825836,130.294540 
	C193.405563,130.529648 191.987701,130.949051 190.564575,130.967758 
	C184.592621,131.046341 178.617615,130.937057 172.647415,131.066681 
	C171.498688,131.091629 169.685349,131.626617 169.401855,132.384109 
	C169.059250,133.299576 169.661346,135.202591 170.487396,135.793365 
	C172.380264,137.147125 174.591995,138.646133 176.792267,138.857437 
	C181.560089,139.315323 186.402466,139.047668 191.213181,138.985291 
	C193.473572,138.955978 195.239563,139.303589 194.994537,142.580475 
	C186.979095,143.000000 178.958191,143.000000 170.468643,143.000000 
z"/>
<path fill="#3B3B3B" opacity="1.000000" stroke="none" 
	d="
M61.468636,143.000000 
	C59.106461,139.502609 57.091640,136.062531 55.395123,132.472046 
	C54.902084,131.428574 55.319393,129.954956 55.319393,128.715164 
	C65.311760,128.715164 75.006218,128.715164 84.700676,128.715164 
	C84.720688,129.301498 84.740707,129.887848 84.760719,130.474182 
	C76.389099,130.474182 68.017479,130.474182 59.646610,130.474182 
	C59.758934,136.269562 61.970886,138.757339 66.732712,138.944107 
	C71.548843,139.133011 76.378235,139.042877 81.200729,138.984726 
	C83.460686,138.957489 85.243057,139.288330 84.994705,142.580322 
	C77.312424,143.000000 69.624847,143.000000 61.468636,143.000000 
z"/>
<path fill="#3B3B3B" opacity="1.000000" stroke="none" 
	d="
M335.468689,143.000000 
	C331.390564,138.927032 328.739075,134.485931 329.441071,127.998985 
	C339.020996,127.998985 348.541840,127.998985 358.531342,127.999496 
	C359.000000,128.750000 359.000000,129.500000 358.531342,130.625504 
	C349.856873,131.001007 341.651062,131.001007 332.885315,131.001007 
	C333.907227,136.465240 336.512390,138.882599 341.088837,138.966614 
	C347.057404,139.076187 353.029449,138.997620 359.000000,139.000000 
	C359.000000,140.312134 359.000000,141.624252 359.000000,143.000000 
	C351.312531,143.000000 343.624969,143.000000 335.468689,143.000000 
z"/>
<path fill="#000000" opacity="1.000000" stroke="none" 
	d="
M359.000000,138.555832 
	C353.029449,138.997620 347.057404,139.076187 341.088837,138.966614 
	C336.512390,138.882599 333.907227,136.465240 332.885315,131.001007 
	C341.651062,131.001007 349.856873,131.001007 358.531342,131.000504 
	C359.000000,133.370560 359.000000,135.741104 359.000000,138.555832 
z"/>
<path fill="#000000" opacity="1.000000" stroke="none" 
	d="
M224.466858,143.000000 
	C224.000000,136.484879 224.000000,129.969757 224.000000,123.454636 
	C224.525940,123.252861 225.051880,123.051086 225.577820,122.849304 
	C231.897461,128.097183 234.954407,135.967560 239.960938,142.651154 
	C234.977905,143.000000 229.955811,143.000000 224.466858,143.000000 
z"/>
<path fill="#3B3B3B" opacity="1.000000" stroke="none" 
	d="
M14.375000,143.000000 
	C13.998452,137.745300 13.860110,132.485748 14.046302,127.237709 
	C14.159260,124.053841 13.051963,122.723808 9.808904,122.963608 
	C7.195919,123.156815 4.557112,123.000778 1.464881,122.999840 
	C1.000000,121.933327 1.000000,120.866661 1.000000,119.399994 
	C9.330739,119.001244 17.663286,118.917114 25.990314,119.093552 
	C27.275068,119.120781 28.534470,120.344498 29.805599,121.014877 
	C28.524965,121.675354 27.274132,122.837273 25.958893,122.915436 
	C17.005901,123.447479 17.001625,123.373817 17.001406,132.565979 
	C17.001329,135.731659 17.000607,138.897339 17.000090,142.531509 
	C16.250000,143.000000 15.500000,143.000000 14.375000,143.000000 
z"/>
<path fill="#3B3B3B" opacity="1.000000" stroke="none" 
	d="
M359.000000,122.600006 
	C350.401672,122.999237 341.801971,123.075012 333.206482,122.918274 
	C331.859283,122.893700 330.531372,121.812996 329.194519,121.220634 
	C330.549622,120.481125 331.889984,119.134995 333.262268,119.101585 
	C341.525024,118.900421 349.795074,119.000221 358.531342,118.999641 
	C359.000000,120.066673 359.000000,121.133339 359.000000,122.600006 
z"/>
<path fill="#878EFF" opacity="1.000000" stroke="none" 
	d="
M183.005463,1.000999 
	C182.353424,1.668016 181.701401,2.335034 181.049362,3.002052 
	C180.614655,2.512052 180.179962,2.022052 179.372620,1.266026 
	C180.066666,1.000000 181.133347,1.000000 182.618286,1.024471 
	C183.036545,1.048942 183.005463,1.001000 183.005463,1.000999 
z"/>
<path fill="#A6AFFF" opacity="1.000000" stroke="none" 
	d="
M176.571533,1.000000 
	C175.087906,1.247974 173.175797,1.495948 171.131851,1.371961 
	C172.714355,1.000000 174.428711,1.000000 176.571533,1.000000 
z"/>
<path fill="#A6AFFF" opacity="1.000000" stroke="none" 
	d="
M183.173615,1.394641 
	C183.005463,1.001000 183.036545,1.048942 183.018280,1.024471 
	C184.714157,1.000000 186.428329,1.000000 188.571243,1.000000 
	C189.000000,1.000000 189.017212,1.477084 188.654266,1.730466 
	C187.490799,2.003455 186.690262,2.023064 185.889740,2.042672 
	C185.040421,1.957876 184.191086,1.873079 183.173615,1.394641 
z"/>
<path fill="#50A6FF" opacity="1.000000" stroke="none" 
	d="
M145.853119,74.097916 
	C141.400101,74.167122 140.461670,70.354858 138.975037,67.494041 
	C135.333511,60.486404 133.390594,52.992565 134.056488,45.022709 
	C134.200378,43.300621 134.986282,41.632172 135.705627,39.147491 
	C138.829590,44.076519 133.922638,50.327503 140.670074,53.256935 
	C141.057114,53.500015 141.058044,53.823807 141.058044,53.823807 
	C140.026901,54.839993 137.466492,55.023441 140.442886,57.424339 
	C142.426971,59.024796 142.877045,62.526974 144.063568,65.822388 
	C144.113480,66.466751 144.154053,66.953339 143.916550,67.168633 
	C144.706985,68.934608 145.734940,70.485283 146.845810,72.269897 
	C146.928726,72.503838 147.049576,72.983833 146.819901,73.135033 
	C146.344513,73.556793 146.098816,73.827354 145.853119,74.097916 
z"/>
<path fill="#7288FF" opacity="1.000000" stroke="none" 
	d="
M212.004883,25.086861 
	C211.984436,24.403820 211.963989,23.720778 212.640167,22.977137 
	C213.540451,22.281128 213.744080,21.645720 214.254669,20.974583 
	C215.322922,20.637768 216.084213,20.336687 216.845490,20.035601 
	C222.367599,28.426594 226.628204,37.177010 225.688950,48.433517 
	C223.276352,45.138973 221.553604,42.786430 219.705215,40.262344 
	C219.871750,39.968517 220.908981,38.826527 220.678421,38.439140 
	C218.320236,34.477180 215.756149,30.637781 213.049408,26.304335 
	C212.567780,25.591972 212.286331,25.339417 212.004883,25.086861 
z"/>
<path fill="#3B3B3B" opacity="1.000000" stroke="none" 
	d="
M167.497452,122.956207 
	C166.437149,122.141441 165.818832,121.354042 165.200500,120.566650 
	C165.944901,120.061050 166.683487,119.125870 167.434570,119.115738 
	C175.703568,119.004257 183.975708,118.971298 192.243042,119.127129 
	C193.109375,119.143456 193.950348,120.505287 194.803070,121.242859 
	C193.788559,121.823837 192.782562,122.890694 191.758194,122.908653 
	C183.820602,123.047760 175.879471,122.984322 167.497452,122.956207 
z"/>
<path fill="#3B3B3B" opacity="1.000000" stroke="none" 
	d="
M55.850304,119.503891 
	C64.637085,119.175133 73.071144,119.018349 81.502945,119.098495 
	C82.609940,119.109024 83.705414,120.332771 84.806221,120.994598 
	C83.708687,121.659920 82.622971,122.877953 81.511734,122.901703 
	C73.736824,123.067856 65.956642,122.988640 58.178143,122.984520 
	C55.991558,122.983360 54.509796,122.386734 55.850304,119.503891 
z"/>
<path fill="#6E90FF" opacity="1.000000" stroke="none" 
	d="
M211.520966,24.813377 
	C212.286331,25.339417 212.567780,25.591972 212.892319,25.989578 
	C210.777435,26.088789 208.608215,26.168577 206.463364,25.976353 
	C194.211380,24.878300 187.100037,31.063128 182.065170,42.846367 
	C181.516739,44.129906 181.145554,45.489182 180.243820,48.122795 
	C178.171524,41.285866 181.630417,37.266609 184.288559,33.481506 
	C190.881302,24.093744 200.466125,22.589676 211.520966,24.813377 
z"/>
<path fill="#6F92FF" opacity="1.000000" stroke="none" 
	d="
M158.086823,8.977850 
	C151.919464,14.563605 146.122452,20.092281 140.537109,25.419100 
	C140.313385,17.325893 160.447357,1.268273 167.857864,4.390349 
	C164.621765,5.949909 161.539490,7.435339 158.086823,8.977850 
z"/>
<path fill="#718FFF" opacity="1.000000" stroke="none" 
	d="
M189.815674,16.637199 
	C193.393036,16.358425 196.630920,16.358425 199.868820,16.358425 
	C200.076935,16.809418 200.285065,17.260410 200.493195,17.711403 
	C186.214020,17.116049 175.586121,22.809975 168.745056,35.112282 
	C166.078690,29.051208 178.714569,18.256517 189.815674,16.637199 
z"/>
<path fill="#62A3FF" opacity="1.000000" stroke="none" 
	d="
M202.787659,83.733582 
	C210.664291,78.766823 216.372055,72.332977 221.061859,64.221291 
	C221.149841,65.193420 221.656143,66.400764 221.261963,67.101784 
	C216.619812,75.357666 210.871536,82.485222 202.298111,86.532799 
	C201.947113,86.160782 201.596100,85.788757 201.245102,85.416733 
	C201.674210,84.941582 202.103302,84.466423 202.787659,83.733582 
z"/>
<path fill="#51A8FF" opacity="1.000000" stroke="none" 
	d="
M197.037506,76.130554 
	C188.118484,84.158386 172.585571,88.289932 166.316772,84.019196 
	C177.433167,84.466866 187.244293,81.823364 195.796295,74.432251 
	C196.525055,75.144470 196.781281,75.637512 197.037506,76.130554 
z"/>
<path fill="#57A5FF" opacity="1.000000" stroke="none" 
	d="
M167.576477,65.775589 
	C170.570724,63.173309 173.198090,60.718887 175.902908,58.352997 
	C176.642273,57.706280 177.614182,57.325386 179.652420,56.140697 
	C173.493408,67.407898 160.143539,73.708015 154.008743,69.878654 
	C158.157822,68.648712 162.698288,67.302750 167.576477,65.775589 
z"/>
<path fill="#708DFF" opacity="1.000000" stroke="none" 
	d="
M163.222046,17.238564 
	C169.498566,11.770063 176.484055,9.151774 184.565369,9.256303 
	C174.865692,11.766821 166.108017,15.800033 159.778168,23.929796 
	C157.817429,21.099203 158.208694,20.374567 163.222046,17.238564 
z"/>
<path fill="#62A3FF" opacity="1.000000" stroke="none" 
	d="
M189.771454,60.725208 
	C191.284012,58.539093 192.533279,56.615372 194.566574,53.484367 
	C193.568420,63.020199 183.519257,73.690369 178.757767,73.541710 
	C181.844925,69.936600 185.676559,65.462105 189.771454,60.725208 
z"/>
<path fill="#878EFF" opacity="1.000000" stroke="none" 
	d="
M186.053818,2.387167 
	C186.690262,2.023064 187.490799,2.003455 188.690765,1.966356 
	C195.177948,4.598631 201.265686,7.248397 207.354202,10.332108 
	C207.205460,10.876758 207.055923,10.987464 206.587067,11.127991 
	C205.454636,11.446393 204.641525,11.734977 203.828400,12.023561 
	C203.506836,11.759805 203.185272,11.496047 202.863708,11.232288 
	C203.209717,10.689584 203.555725,10.146879 203.901733,9.604174 
	C198.007126,7.313337 192.112503,5.022500 186.053818,2.387167 
z"/>
<path fill="#878EFF" opacity="1.000000" stroke="none" 
	d="
M216.843597,19.690432 
	C216.084213,20.336687 215.322922,20.637768 213.909500,20.970678 
	C212.796661,21.022831 212.335968,21.043156 211.875259,21.063482 
	C211.875259,21.063482 211.967682,21.046305 211.877350,20.860020 
	C211.569168,20.423733 211.351303,20.173731 211.133438,19.923729 
	C211.045654,19.603630 210.869156,19.343800 210.198334,18.884087 
	C209.479645,18.420572 209.166519,18.217211 208.853409,18.013849 
	C208.853409,18.013849 208.943054,18.016289 208.969681,17.751411 
	C208.984909,17.280489 208.973526,17.074442 208.962128,16.868389 
	C208.346771,16.115818 207.731415,15.363251 207.026855,13.958923 
	C206.927231,12.570831 206.916809,11.834501 206.906387,11.098170 
	C207.055923,10.987464 207.205460,10.876758 207.586212,10.609732 
	C210.825516,13.417360 213.833603,16.381310 216.843597,19.690432 
z"/>
<path fill="#6BA5FF" opacity="1.000000" stroke="none" 
	d="
M197.354492,76.006134 
	C196.781281,75.637512 196.525055,75.144470 196.137115,74.406174 
	C198.169510,71.773415 200.489334,69.506111 202.452393,66.963379 
	C204.281769,64.593758 205.731628,61.931141 208.123093,58.183842 
	C208.123093,60.403759 208.564407,61.802929 208.051514,62.499977 
	C204.706894,67.045456 201.155350,71.438690 197.354492,76.006134 
z"/>
<path fill="#59B2FF" opacity="1.000000" stroke="none" 
	d="
M146.762894,72.035957 
	C145.734940,70.485283 144.706985,68.934608 144.240601,67.180481 
	C145.237137,66.966125 145.672134,66.955208 146.107132,66.944290 
	C146.107132,66.944290 146.027527,66.971939 146.137024,67.168777 
	C146.528015,67.575089 146.809479,67.784561 147.090958,67.994026 
	C147.090958,67.994026 146.998093,67.980652 147.117401,68.191833 
	C147.498260,68.668106 147.759781,68.933197 148.021317,69.198288 
	C148.004608,69.619118 147.987915,70.039940 147.695007,70.894562 
	C147.168777,71.535110 146.950150,71.770981 146.762894,72.035957 
z"/>
<path fill="#59B2FF" opacity="1.000000" stroke="none" 
	d="
M145.952881,74.359131 
	C146.098816,73.827354 146.344513,73.556793 147.163208,73.138603 
	C148.194229,72.974861 148.652298,72.958748 149.110352,72.942627 
	C149.110352,72.942627 149.029388,72.970978 149.136536,73.168655 
	C149.525955,73.575172 149.808228,73.784004 150.090485,73.992836 
	C150.090485,73.992836 150.021561,73.954384 150.002625,74.273071 
	C149.990936,75.064308 149.998184,75.536873 149.628601,76.009796 
	C148.748108,76.002121 148.244431,75.994080 147.740768,75.986038 
	C147.178055,75.530815 146.615341,75.075584 145.952881,74.359131 
z"/>
<path fill="#A6AFFF" opacity="1.000000" stroke="none" 
	d="
M210.127441,33.010109 
	C209.101883,32.962189 208.463074,32.914547 207.824280,32.866905 
	C207.823883,32.689468 207.823486,32.512032 207.823090,32.334595 
	C209.664993,32.334595 211.506912,32.334595 213.348831,32.334595 
	C213.357361,32.495628 213.365891,32.656658 213.374420,32.817692 
	C212.421005,32.881924 211.467606,32.946156 210.127441,33.010109 
z"/>
<path fill="#A6AFFF" opacity="1.000000" stroke="none" 
	d="
M206.587067,11.127991 
	C206.916809,11.834501 206.927231,12.570831 206.931641,13.676086 
	C205.990295,13.572247 205.054977,13.099483 203.974030,12.325140 
	C204.641525,11.734977 205.454636,11.446393 206.587067,11.127991 
z"/>
<path fill="#51A8FF" opacity="1.000000" stroke="none" 
	d="
M151.128036,78.748459 
	C151.128036,78.748459 150.977402,78.498734 150.974792,78.047318 
	C150.980209,77.392380 150.988235,77.188858 151.190186,76.932922 
	C151.884354,76.756447 152.384598,76.632385 152.884842,76.508324 
	C152.884842,76.508324 153.247772,76.368530 153.459366,76.382317 
	C153.670959,76.396103 153.630371,76.281082 153.630371,76.281082 
	C153.749664,76.905205 153.868973,77.529320 153.570084,78.589859 
	C152.477280,78.933662 151.802658,78.841057 151.128036,78.748459 
z"/>
<path fill="#89C8FF" opacity="1.000000" stroke="none" 
	d="
M150.996262,76.985329 
	C150.988235,77.188858 150.980209,77.392380 150.986603,77.901985 
	C149.988907,77.673958 148.976776,77.139862 147.852722,76.295898 
	C148.244431,75.994080 148.748108,76.002121 149.620560,76.002487 
	C149.989349,75.994804 149.970627,75.984947 150.094925,76.203476 
	C150.486588,76.617867 150.753967,76.813721 151.008270,77.009743 
	C150.995193,77.009918 150.996262,76.985329 150.996262,76.985329 
z"/>
<path fill="#94D0FF" opacity="1.000000" stroke="none" 
	d="
M153.208160,76.159058 
	C152.384598,76.632385 151.884354,76.756447 151.190186,76.932922 
	C150.996262,76.985329 150.995193,77.009918 151.040253,76.660179 
	C151.039017,76.081100 150.992752,75.851761 151.004303,75.597694 
	C151.062134,75.572968 151.006775,75.529572 151.006775,75.529572 
	C151.848343,75.622978 152.689911,75.716377 153.208160,76.159058 
z"/>
<path fill="#A6AFFF" opacity="1.000000" stroke="none" 
	d="
M211.983551,21.329432 
	C212.335968,21.043156 212.796661,21.022831 213.602539,21.006409 
	C213.744080,21.645720 213.540451,22.281128 213.075623,22.954700 
	C212.573578,22.527037 212.332718,22.061209 211.983551,21.329432 
z"/>
<path fill="#94D0FF" opacity="1.000000" stroke="none" 
	d="
M151.111633,79.143372 
	C151.802658,78.841057 152.477280,78.933662 153.489731,79.067963 
	C153.834717,79.306068 153.841858,79.502464 153.620285,79.864090 
	C153.391556,80.029320 153.426620,79.916893 153.426620,79.916893 
	C152.649490,79.790688 151.872345,79.664490 151.111633,79.143372 
z"/>
<path fill="#89C8FF" opacity="1.000000" stroke="none" 
	d="
M141.417206,53.896774 
	C141.058044,53.823807 141.057114,53.500015 141.057739,53.338097 
	C142.175018,53.176174 143.291672,53.176174 144.408340,53.176174 
	C144.417633,53.355392 144.426926,53.534611 144.436218,53.713829 
	C143.549591,53.799133 142.662979,53.884438 141.417206,53.896774 
z"/>
<path fill="#89C8FF" opacity="1.000000" stroke="none" 
	d="
M149.007935,72.672165 
	C148.652298,72.958748 148.194229,72.974861 147.392883,72.987404 
	C147.049576,72.983833 146.928726,72.503838 146.845810,72.269897 
	C146.950150,71.770981 147.168777,71.535110 147.622894,71.202209 
	C148.186508,71.517944 148.546021,71.959816 149.007935,72.672165 
z"/>
<path fill="#94D0FF" opacity="1.000000" stroke="none" 
	d="
M153.929184,76.570129 
	C153.630371,76.281082 153.670959,76.396103 153.643707,76.444221 
	C154.451859,76.322357 155.287262,76.152374 156.122650,75.982391 
	C156.164215,76.199051 156.205780,76.415703 156.247345,76.632355 
	C155.574234,76.707962 154.901108,76.783577 153.929184,76.570129 
z"/>
<path fill="#89C8FF" opacity="1.000000" stroke="none" 
	d="
M151.253113,75.236023 
	C151.006775,75.529572 151.062134,75.572968 150.765778,75.703018 
	C150.303162,75.883698 150.136902,75.934326 149.970627,75.984947 
	C149.970627,75.984947 149.989349,75.994804 149.997375,76.002121 
	C149.998184,75.536873 149.990936,75.064308 150.023254,74.239426 
	C150.541672,74.238892 151.020569,74.590683 151.253113,75.236023 
z"/>
<path fill="#6BA5FF" opacity="1.000000" stroke="none" 
	d="
M164.159546,76.014938 
	C164.876907,76.173622 165.254364,76.359627 165.631805,76.545631 
	C164.927551,76.591743 164.223373,76.639534 163.518448,76.670525 
	C163.505951,76.671074 163.435013,76.439522 163.478043,76.369705 
	C163.558151,76.239754 163.702209,76.149208 164.159546,76.014938 
z"/>
<path fill="#89C8FF" opacity="1.000000" stroke="none" 
	d="
M148.294495,69.052277 
	C147.759781,68.933197 147.498260,68.668106 147.124573,68.145477 
	C147.530853,68.227379 148.049271,68.566818 148.294495,69.052277 
z"/>
<path fill="#89C8FF" opacity="1.000000" stroke="none" 
	d="
M145.986694,66.659225 
	C145.672134,66.955208 145.237137,66.966125 144.478088,66.965195 
	C144.154053,66.953339 144.113480,66.466751 144.113190,66.223267 
	C144.697342,66.111244 145.281784,66.242706 145.986694,66.659225 
z"/>
<path fill="#51A8FF" opacity="1.000000" stroke="none" 
	d="
M153.487640,80.221878 
	C153.426620,79.916893 153.391556,80.029320 153.369934,80.019783 
	C153.372253,80.311729 153.396179,80.613213 153.420105,80.914696 
	C153.345459,80.878586 153.270828,80.842468 153.196182,80.806358 
	C153.313675,80.713196 153.431168,80.620033 153.487640,80.221878 
z"/>
<path fill="#A6AFFF" opacity="1.000000" stroke="none" 
	d="
M208.914703,18.304901 
	C209.166519,18.217211 209.479645,18.420572 209.962036,18.848381 
	C209.925110,19.274015 209.718903,19.475203 209.512711,19.676394 
	C209.333801,19.316248 209.154892,18.956099 208.914703,18.304901 
z"/>
<path fill="#89C8FF" opacity="1.000000" stroke="none" 
	d="
M150.019775,73.718979 
	C149.808228,73.784004 149.525955,73.575172 149.124207,73.127579 
	C149.319489,73.074249 149.634277,73.259682 150.019775,73.718979 
z"/>
<path fill="#89C8FF" opacity="1.000000" stroke="none" 
	d="
M147.019379,67.720428 
	C146.809479,67.784561 146.528015,67.575089 146.124969,67.128403 
	C146.318192,67.076401 146.632996,67.261612 147.019379,67.720428 
z"/>
<path fill="#A6AFFF" opacity="1.000000" stroke="none" 
	d="
M211.090469,20.212410 
	C211.351303,20.173731 211.569168,20.423733 211.883179,20.906654 
	C211.668732,20.926748 211.358109,20.713923 211.090469,20.212410 
z"/>
<path fill="#A6AFFF" opacity="1.000000" stroke="none" 
	d="
M208.696747,16.963795 
	C208.973526,17.074442 208.984909,17.280489 208.965851,17.796085 
	C208.767395,17.756824 208.599396,17.408010 208.696747,16.963795 
z"/>
<path fill="#000000" opacity="1.000000" stroke="none" 
	d="
M135.719925,126.776108 
	C135.883835,129.160995 136.435287,131.336304 135.807907,133.089828 
	C135.100632,135.066605 133.514771,137.976868 131.992126,138.188705 
	C126.634247,138.934052 121.139832,138.726395 115.696259,138.777145 
	C115.223663,138.781555 114.337967,138.037048 114.329979,137.627045 
	C114.243164,133.167450 114.271461,128.704773 114.351021,124.244423 
	C114.356895,123.915100 114.951935,123.507149 115.355728,123.288094 
	C118.720085,121.462875 132.715317,123.620857 135.719925,126.776108 
z"/>
<path fill="#51A8FF" opacity="1.000000" stroke="none" 
	d="
M150.094925,76.203476 
	C150.136902,75.934326 150.303162,75.883698 150.707947,75.727745 
	C150.992752,75.851761 151.039017,76.081100 151.053314,76.660004 
	C150.753967,76.813721 150.486588,76.617867 150.094925,76.203476 
z"/>
</svg>